<svg xmlns="http://www.w3.org/2000/svg" width="34" height="34" fill="none" viewBox="0 0 34 34">
    <path fill="#fff" d="M23.583 12.687c-.116-.06-.252-.076-.38-.044s-.238.11-.308.216c-.066.11-.084.241-.05.364.033.122.116.227.23.292 1.171.477 1.725 1.814 1.575 2.967 0 .128.054.25.149.34.094.09.222.142.356.143.132-.004.258-.056.351-.146.093-.09.147-.21.15-.337.108-.99-.171-1.983-.783-2.789-.328-.44-.774-.788-1.29-1.006zm9.698 4.65c-.87-1.335-2.346-2.014-3.921-2.184.459-2.048-1.113-4.172-3.101-4.974l-.055-.029c-1.089-.456-2.317-.5-3.438-.123-.156.041-.306.085-.47.135l-.108.038c-.054.016-.105.042-.15.076.045-.034.096-.06.15-.076l.107-.038c-.385-.769-.939-1.448-1.623-1.993-.685-.545-1.484-.942-2.344-1.164-.86-.222-1.76-.264-2.637-.124-.879.141-1.715.462-2.452.94-.812.577-1.446 1.353-1.835 2.247l-.247-.064c-1.107-.357-2.313-.306-3.383.143l-.07.038c-.271.107-.532.238-.777.392-.588.36-1.094.832-1.486 1.385-.393.553-.663 1.177-.795 1.834-.088.447-.088.905 0 1.352-1.649.175-3.202.919-4.034 2.364-.376.658-.585 1.392-.61 2.142-.024.75.137 1.494.47 2.174.313.64.821 1.174 1.458 1.533.295.162.615.277.948.342.44.064.883.096 1.327.097h24.91c.55 0 1.951 0 2.404-.196 2.59-.898 3.107-4.21 1.762-6.268zM7.193 11.542c-.042-.095-.115-.173-.207-.226-.092-.053-.2-.076-.307-.067.107-.009.215.014.307.067.092.053.165.131.207.226zm-.685-.249c-.103.053-.184.136-.233.238-.049.101-.061.215-.036.324 0 .073.024.146.04.216-.016-.07-.03-.143-.04-.216-.025-.11-.013-.223.036-.324.049-.102.13-.185.233-.238zm9.576 10.987c-.64-.103-1.25-.335-1.79-.68-.54-.347-.996-.798-1.34-1.325-.343-.527-.566-1.118-.653-1.733-.087-.616-.037-1.242.148-1.838.185-.595.5-1.147.923-1.617.424-.47.948-.85 1.536-1.112.588-.263 1.229-.403 1.878-.411.649-.008 1.292.115 1.888.363h.021-.02c-.374.08-.721.244-1.013.48-.292.236-.52.536-.664.874-.205-.005-.41.01-.611.047-.618.124-1.174.442-1.58.904-.405.462-.636 1.042-.656 1.645v.125c.019.537.203 1.055.53 1.491.326.436.78.77 1.305.959.54.181 1.124.2 1.676.056.552-.146 1.043-.45 1.41-.87.301-.356.504-.778.59-1.229.394-.073.762-.24 1.07-.486.307-.246.544-.563.688-.921.166.71.144 1.448-.062 2.148-.207.7-.592 1.34-1.121 1.862-.53.523-1.186.91-1.911 1.13-.725.22-1.495.263-2.242.127v.011zm3.128-7.455c.276 0 .547.077.776.223.23.147.41.355.515.6.106.243.134.512.08.77-.053.26-.186.498-.381.685-.196.186-.445.314-.715.365-.271.051-.552.025-.807-.077-.255-.101-.472-.273-.625-.492-.154-.22-.235-.479-.234-.743.003-.352.15-.689.41-.938.261-.249.613-.39.981-.393zm13.744 5.712c-.09.488-.299.95-.611 1.346l-.07.087-.114.12c-.094.105-.196.203-.306.293-.14.097-.287.185-.44.263v-.02c.02-1.07-.324-2.117-.979-2.985-.372-.502-.887-.892-1.482-1.124-.596-.233-1.249-.299-1.882-.19-.633.12-.364 1.045.266.928.96-.181 1.89.354 2.404 1.109.486.742.717 1.61.66 2.484-.376.02-.767 0-1.18 0H25.256c.483-.502.812-1.123.948-1.794.113-.608-.802-.851-.967-.254-.222.789-.676 1.5-1.309 2.048h-4.682c.787-.323 1.48-.825 2.018-1.463.748-.86 1.194-1.924 1.277-3.04.082-1.116-.205-2.23-.819-3.181-.614-.953-1.526-1.696-2.605-2.127-1.08-.43-2.274-.525-3.413-.271-1.139.253-2.166.843-2.936 1.685-.77.842-1.245 1.894-1.357 3.008-.112 1.114.145 2.233.733 3.2.59.967 1.48 1.733 2.548 2.19h.015-4.419c-.72-.515-1.254-1.23-1.529-2.05-.174-.584-1.156-.339-.97.258.191.682.572 1.3 1.102 1.791H3.627c-.056-.874.175-1.742.66-2.484.515-.752 1.444-1.288 2.402-1.11.633.12.917-.807.269-.924-.634-.109-1.286-.043-1.882.19-.595.232-1.11.622-1.482 1.124-.657.868-1 1.916-.98 2.988-.344-.154-.646-.383-.883-.668-.085-.1-.162-.206-.23-.319-.039-.061-.073-.122-.11-.187l-.085-.172c-.127-.29-.215-.594-.263-.905 0 0 0-.07-.018-.143-.019-.073 0-.164-.016-.249-.01-.167-.01-.335 0-.503.03-.314.1-.624.208-.922.248-.688.711-1.286 1.328-1.711.815-.517 1.774-.788 2.752-.779.09.003.179-.017.258-.058.079-.041.145-.102.192-.175.046-.074.072-.158.073-.244.002-.086-.02-.17-.064-.246-.16-.394-.208-.822-.14-1.24.078-.503.262-.986.54-1.42.067-.1.138-.198.215-.292 0-.04-.022-.082-.034-.126 0 .044.021.085.034.126.141.467.406.893.767 1.235.432.397.947.703 1.511.898.03-.073.073-.146.11-.22-.037.074-.08.147-.11.22-.272.614-.377 1.283-.306 1.946.005.126.059.245.152.335.093.089.218.14.35.145.132 0 .26-.052.353-.142.094-.09.147-.21.148-.338-.131-1.147.422-2.487 1.609-2.961.114-.066.196-.171.23-.294.033-.123.016-.254-.05-.364-.07-.108-.18-.186-.308-.218s-.264-.016-.38.045c-.517.219-.963.568-1.29 1.01-.052.064-.092.134-.138.201.046-.067.086-.137.138-.202-.027-.014-.056-.026-.086-.035-.451-.143-.863-.383-1.205-.7-.38-.37-.612-.857-.657-1.374v-.024c.536-.394 1.167-.652 1.834-.752.645-.088 1.302-.044 1.927.129.577.196 1.09.531 1.49.974.43.477 1.29-.061.856-.544-.296-.325-.638-.61-1.015-.845.28-.679.732-1.279 1.316-1.746.585-.468 1.282-.788 2.03-.932.742-.139 1.507-.127 2.245.035.738.163 1.431.472 2.036.907.672.495 1.198 1.147 1.53 1.893-.286.202-.547.433-.78.688-.435.483.424 1.021.856.544.378-.42.859-.744 1.4-.942.874-.248 1.805-.248 2.68 0 .077.026.153.055.229.088.04.016.08.029.122.038.192.078.377.17.554.275.1.062.198.126.305.196.017-.056.045-.108.084-.152.04-.045.088-.08.143-.105-.055.024-.104.06-.143.105-.039.044-.067.096-.084.152v.026c-.042.515-.269 1-.642 1.373-.34.317-.753.556-1.205.7l-.085.034c.2.261.365.546.492.846.558-.201 1.065-.512 1.49-.913.368-.347.637-.78.78-1.255.027-.088.048-.176.07-.267-.022.091-.043.179-.07.267.36.463.611.996.733 1.562.104.47.066.958-.11 1.408-.042.072-.065.153-.065.235 0 .083.021.164.063.236.042.073.102.134.175.178.073.044.157.069.243.073 1.361.027 2.752.483 3.545 1.507.34.432.573.933.682 1.463.054.247.081.5.08.752.006.25-.013.498-.059.744h.015z"/>
</svg>
